<svg xmlns="http://www.w3.org/2000/svg">
  <symbol id="avatar-boy" viewBox="0 0 96 96">
    <circle cx="48" cy="48" r="46" fill="#e7f0fb"/>
    <path d="M21 92c3.6-16.2 14.3-25.5 27-25.5S71.4 75.8 75 92Z" fill="#4f9ed8"/>
    <path d="M38 66h20v12c0 4.8-4.5 8.5-10 8.5S38 82.8 38 78Z" fill="#ffd7b5"/>
    <circle cx="27.5" cy="49" r="6" fill="#f3bd94"/>
    <circle cx="68.5" cy="49" r="6" fill="#f3bd94"/>
    <path d="M70 43c0 17.3-9.6 29.5-22 29.5S26 60.3 26 43c0-13.2 8.4-22.8 22-22.8S70 29.8 70 43Z" fill="#ffd7b5"/>
    <path d="M25.6 44.5c-1.8-13.6 8-25 23-25 12.5 0 22 7.7 23 19.5-9.6-.2-17-3.7-21.5-10.4-4.2 8-12.4 13.6-24.5 15.9Z" fill="#5b3320"/>
    <path d="M35.5 49.5a3 3 0 1 0 0-.1M60.5 49.5a3 3 0 1 0 0-.1" fill="#293241"/>
    <circle cx="34.5" cy="47.5" r="1" fill="#fff"/>
    <circle cx="59.5" cy="47.5" r="1" fill="#fff"/>
    <path d="M41.5 60.5c4 3.2 9 3.2 13 0" fill="none" stroke="#b45b4c" stroke-width="2.6" stroke-linecap="round"/>
    <circle cx="32.5" cy="57.8" r="3.2" fill="#ffb9a7" opacity=".65"/>
    <circle cx="63.5" cy="57.8" r="3.2" fill="#ffb9a7" opacity=".65"/>
  </symbol>

  <symbol id="avatar-girl" viewBox="0 0 96 96">
    <circle cx="48" cy="48" r="46" fill="#e7f0fb"/>
    <path d="M21 92c3.5-16.5 14.1-25.8 27-25.8S72.5 75.5 76 92Z" fill="#f27b76"/>
    <path d="M38 66h20v12c0 4.9-4.4 8.5-10 8.5S38 82.9 38 78Z" fill="#ffd7b5"/>
    <circle cx="25" cy="48" r="9" fill="#6a3b23"/>
    <circle cx="71" cy="48" r="9" fill="#6a3b23"/>
    <circle cx="28" cy="49" r="6" fill="#f3bd94"/>
    <circle cx="68" cy="49" r="6" fill="#f3bd94"/>
    <path d="M70 43.5c0 17-9.6 29.2-22 29.2S26 60.5 26 43.5c0-13.1 8.2-22.6 22-22.6s22 9.5 22 22.6Z" fill="#ffd7b5"/>
    <path d="M25.2 45.2c-1-15.4 8.6-26.7 23-26.7 14.2 0 24.2 10.8 22.6 27.1-10-1.2-17.3-6-21.6-14-5 7.5-13.2 12.1-24 13.6Z" fill="#6a3b23"/>
    <path d="M33 24.5c6.4-7 19.5-8.2 28.1-1.2-7-1.1-14.8.3-20.5 3.8Z" fill="#7f4b2f"/>
    <path d="M35.5 50a3 3 0 1 0 0-.1M60.5 50a3 3 0 1 0 0-.1" fill="#293241"/>
    <circle cx="34.5" cy="48" r="1" fill="#fff"/>
    <circle cx="59.5" cy="48" r="1" fill="#fff"/>
    <path d="M41.5 60.8c4.1 3.2 9 3.2 13 0" fill="none" stroke="#b45b4c" stroke-width="2.6" stroke-linecap="round"/>
    <circle cx="32.5" cy="58" r="3.3" fill="#ffb9a7" opacity=".7"/>
    <circle cx="63.5" cy="58" r="3.3" fill="#ffb9a7" opacity=".7"/>
  </symbol>

  <symbol id="avatar-man" viewBox="0 0 96 96">
    <circle cx="48" cy="48" r="46" fill="#e7f0fb"/>
    <path d="M19 92c3.9-16.7 15.2-26.2 29-26.2S73.1 75.3 77 92Z" fill="#3d8cc8"/>
    <path d="M37 65h22v12.6c0 5.1-4.9 9-11 9s-11-3.9-11-9Z" fill="#ffd7b5"/>
    <circle cx="27" cy="48" r="6" fill="#f3bd94"/>
    <circle cx="69" cy="48" r="6" fill="#f3bd94"/>
    <path d="M71 42.5c0 17.5-10 30-23 30s-23-12.5-23-30C25 28.9 33.7 19 48 19s23 9.9 23 23.5Z" fill="#ffd7b5"/>
    <path d="M25.2 42.8C23.8 29.1 34 18 48.5 18 61.6 18 70 25.5 71.8 37.6c-9.4 1.3-18.4-2.3-23.5-9.6-4.5 7.6-11.8 12.5-23.1 14.8Z" fill="#59331f"/>
    <path d="M33.5 49.5a3 3 0 1 0 0-.1M61.5 49.5a3 3 0 1 0 0-.1" fill="#293241"/>
    <path d="M40.5 61.3c4.4 2.8 10.6 2.8 15 0" fill="none" stroke="#a14f43" stroke-width="2.5" stroke-linecap="round"/>
    <path d="M40.5 57.8c5 2.2 10 2.2 15 0v2.6c-4.5 3.2-10.5 3.2-15 0Z" fill="#5a321f" opacity=".9"/>
  </symbol>

  <symbol id="avatar-woman" viewBox="0 0 96 96">
    <circle cx="48" cy="48" r="46" fill="#e7f0fb"/>
    <path d="M20 92c3.8-16.6 15-26 28-26s24.2 9.4 28 26Z" fill="#f06f76"/>
    <path d="M37.5 65.5h21v12.2c0 5-4.7 8.8-10.5 8.8s-10.5-3.8-10.5-8.8Z" fill="#ffd7b5"/>
    <path d="M23 77c1-15.4 2.3-29.2 2.3-39.3C25.3 25 34.5 17 48 17s22.7 8 22.7 20.7C70.7 48 72 61.6 73 77c-8.3-3.5-15.4-4-25-4s-16.7.5-25 4Z" fill="#5e3421"/>
    <circle cx="28" cy="48.5" r="6" fill="#f3bd94"/>
    <circle cx="68" cy="48.5" r="6" fill="#f3bd94"/>
    <path d="M69.5 43c0 17.3-9.5 29.5-21.5 29.5S26.5 60.3 26.5 43c0-13.2 8.1-22.4 21.5-22.4S69.5 29.8 69.5 43Z" fill="#ffd7b5"/>
    <path d="M26 45.2c-1-15.3 8.4-25.9 22.2-25.9 13.6 0 23.2 10.3 21.8 25.9-9.9-.9-17.6-5.2-22.3-12.7C42.5 39.7 35.2 43.7 26 45.2Z" fill="#6f432b"/>
    <path d="M35.5 50a3 3 0 1 0 0-.1M60.5 50a3 3 0 1 0 0-.1" fill="#293241"/>
    <path d="M41 61c4.4 3.1 9.6 3.1 14 0" fill="none" stroke="#b45b4c" stroke-width="2.6" stroke-linecap="round"/>
    <circle cx="32.5" cy="58" r="3.4" fill="#ffb9a7" opacity=".72"/>
    <circle cx="63.5" cy="58" r="3.4" fill="#ffb9a7" opacity=".72"/>
  </symbol>

  <symbol id="avatar-child" viewBox="0 0 96 96">
    <circle cx="48" cy="48" r="46" fill="#e7f0fb"/>
    <path d="M22 92c3.7-16 14-25 26-25s22.3 9 26 25Z" fill="#61be7f"/>
    <path d="M38.5 66h19v11c0 4.6-4.2 8-9.5 8s-9.5-3.4-9.5-8Z" fill="#ffd7b5"/>
    <circle cx="28" cy="49" r="5.8" fill="#f3bd94"/>
    <circle cx="68" cy="49" r="5.8" fill="#f3bd94"/>
    <path d="M69.5 44c0 16.4-9.3 28-21.5 28s-21.5-11.6-21.5-28c0-12.6 8.1-21.9 21.5-21.9S69.5 31.4 69.5 44Z" fill="#ffd7b5"/>
    <path d="M26 45.5C25 31.6 34 21 48 21c13.3 0 22.3 9.4 22 23.8-9.5-.5-16.7-4.2-21.5-11.1-4.5 6.8-12 10.7-22.5 11.8Z" fill="#6a3b23"/>
    <path d="M35.5 50a3 3 0 1 0 0-.1M60.5 50a3 3 0 1 0 0-.1" fill="#293241"/>
    <path d="M41.5 61c4.2 3 8.8 3 13 0" fill="none" stroke="#b45b4c" stroke-width="2.6" stroke-linecap="round"/>
    <circle cx="32.5" cy="58" r="3.2" fill="#ffb9a7" opacity=".68"/>
    <circle cx="63.5" cy="58" r="3.2" fill="#ffb9a7" opacity=".68"/>
  </symbol>

  <symbol id="avatar-family" viewBox="0 0 128 128">
    <circle cx="64" cy="64" r="62" fill="#e7f0fb"/>
    <path d="M17 121c3.6-18.4 15.1-30 30.5-30S74.4 102.6 78 121Z" fill="#3d8cc8"/>
    <path d="M50 121c3.9-18 15.6-29.5 31-29.5S108.1 103 112 121Z" fill="#f06f76"/>
    <path d="M36.5 87h21v12c0 5-4.7 8.7-10.5 8.7S36.5 104 36.5 99Z" fill="#ffd7b5"/>
    <path d="M70.5 87h21v12c0 5-4.7 8.7-10.5 8.7S70.5 104 70.5 99Z" fill="#ffd7b5"/>
    <circle cx="28" cy="65" r="6.2" fill="#f3bd94"/>
    <circle cx="66" cy="65" r="6.2" fill="#f3bd94"/>
    <circle cx="63" cy="65" r="6.2" fill="#f3bd94"/>
    <circle cx="99" cy="65" r="6.2" fill="#f3bd94"/>
    <path d="M68 59c0 17.5-9.5 29.5-21 29.5S26 76.5 26 59c0-13.4 7.8-23 21-23s21 9.6 21 23Z" fill="#ffd7b5"/>
    <path d="M101.5 59.2c0 17.2-9.3 29.3-20.5 29.3S60.5 76.4 60.5 59.2c0-13.2 7.7-22.7 20.5-22.7s20.5 9.5 20.5 22.7Z" fill="#ffd7b5"/>
    <path d="M26 60.7c-1.3-13.3 7.8-25.5 21.5-25.5 12 0 20.7 7.2 21.5 19.1-8.7 0-16-3.3-20.5-9.9-4 7.5-11.8 13.3-22.5 16.3Z" fill="#59331f"/>
    <path d="M60.8 61.2c-.9-14.8 7.9-25 20.5-25 12.3 0 21.2 9.8 20 25-8.7-.9-15.5-5-19.9-12-4.8 6.8-11.4 10.7-20.6 12Z" fill="#6f432b"/>
    <path d="M38.5 66.5a2.8 2.8 0 1 0 0-.1M55.5 66.5a2.8 2.8 0 1 0 0-.1M73.5 66.5a2.8 2.8 0 1 0 0-.1M89.5 66.5a2.8 2.8 0 1 0 0-.1" fill="#293241"/>
    <path d="M41 78c3.6 2.8 8.4 2.8 12 0M75 78c3.6 2.8 8.4 2.8 12 0" fill="none" stroke="#b45b4c" stroke-width="2.4" stroke-linecap="round"/>
    <path d="M38 122c3.3-15.3 13.1-24.2 26-24.2S86.7 106.7 90 122Z" fill="#62c67e"/>
    <path d="M55 94h18v10.5c0 4.3-4 7.8-9 7.8s-9-3.5-9-7.8Z" fill="#ffd7b5"/>
    <circle cx="46.5" cy="80.5" r="5.5" fill="#f3bd94"/>
    <circle cx="81.5" cy="80.5" r="5.5" fill="#f3bd94"/>
    <path d="M84 76c0 15.7-8.8 26.7-20 26.7S44 91.7 44 76c0-12 7.4-20.9 20-20.9S84 64 84 76Z" fill="#ffd7b5"/>
    <path d="M44 77.8c-.9-13.2 7.8-23.2 20.2-23.2 12 0 20.4 9.2 19.8 22.8-8.4-.5-14.8-3.8-19.1-9.8-4 6.2-11 9.7-20.9 10.2Z" fill="#6a3b23"/>
    <path d="M57 82a2.7 2.7 0 1 0 0-.1M71 82a2.7 2.7 0 1 0 0-.1" fill="#293241"/>
    <path d="M59.5 92.3c3.2 2.5 6.8 2.5 10 0" fill="none" stroke="#b45b4c" stroke-width="2.3" stroke-linecap="round"/>
    <circle cx="54" cy="90" r="3" fill="#ffb9a7" opacity=".68"/>
    <circle cx="74" cy="90" r="3" fill="#ffb9a7" opacity=".68"/>
  </symbol>
</svg>
