<svg xmlns="http://www.w3.org/2000/svg">
  <symbol id="home" viewBox="0 0 24 24">
    <path d="M4 11.5 12 5l8 6.5V20a1 1 0 0 1-1 1h-5v-6h-4v6H5a1 1 0 0 1-1-1Z" fill="none" stroke="currentColor" stroke-width="1.8" stroke-linejoin="round"/>
  </symbol>
  <symbol id="calendar" viewBox="0 0 24 24">
    <rect x="4" y="5" width="16" height="15" rx="2" fill="none" stroke="currentColor" stroke-width="1.8"/>
    <path d="M8 3v4M16 3v4M4 10h16" fill="none" stroke="currentColor" stroke-width="1.8" stroke-linecap="round"/>
  </symbol>
  <symbol id="family" viewBox="0 0 24 24">
    <circle cx="8" cy="8" r="3" fill="none" stroke="currentColor" stroke-width="1.8"/>
    <circle cx="16" cy="8" r="3" fill="none" stroke="currentColor" stroke-width="1.8"/>
    <circle cx="12" cy="15" r="2.4" fill="none" stroke="currentColor" stroke-width="1.8"/>
    <path d="M3.5 20c.7-3 2.4-5 4.5-5 1.1 0 2 .5 2.7 1.3M20.5 20c-.7-3-2.4-5-4.5-5-1.1 0-2 .5-2.7 1.3M8.5 21c.5-2.1 1.8-3.4 3.5-3.4s3 1.3 3.5 3.4" fill="none" stroke="currentColor" stroke-width="1.8" stroke-linecap="round"/>
  </symbol>
  <symbol id="family-heart" viewBox="0 0 24 24">
    <circle cx="8" cy="10" r="2.8" fill="none" stroke="currentColor" stroke-width="1.8"/>
    <circle cx="16" cy="10" r="2.8" fill="none" stroke="currentColor" stroke-width="1.8"/>
    <path d="M4 21c.5-3.2 2-5 4-5 1.2 0 2.1.5 2.8 1.4M20 21c-.5-3.2-2-5-4-5-1.2 0-2.1.5-2.8 1.4M12 7.1l-.6-.6a2.1 2.1 0 0 0-3 3L12 13l3.6-3.5a2.1 2.1 0 0 0-3-3Z" fill="none" stroke="currentColor" stroke-width="1.8" stroke-linecap="round" stroke-linejoin="round"/>
  </symbol>
  <symbol id="hands-heart" viewBox="0 0 24 24">
    <path d="M12 7.2 10.9 6a2.4 2.4 0 0 0-3.5 3.3L12 14l4.6-4.7A2.4 2.4 0 0 0 13.1 6Z" fill="none" stroke="currentColor" stroke-width="1.8" stroke-linecap="round" stroke-linejoin="round"/>
    <path d="M4.2 13.2v2.3c0 .9.5 1.8 1.3 2.3L9.3 20M19.8 13.2v2.3c0 .9-.5 1.8-1.3 2.3L14.7 20" fill="none" stroke="currentColor" stroke-width="1.8" stroke-linecap="round" stroke-linejoin="round"/>
    <path d="M7.7 14.8 5.4 13a1.5 1.5 0 0 0-2.1.3 1.5 1.5 0 0 0 .3 2.1l3.3 2.5c.7.5 1.5.8 2.4.8H11M16.3 14.8l2.3-1.8a1.5 1.5 0 0 1 2.1.3 1.5 1.5 0 0 1-.3 2.1l-3.3 2.5c-.7.5-1.5.8-2.4.8H13" fill="none" stroke="currentColor" stroke-width="1.8" stroke-linecap="round" stroke-linejoin="round"/>
  </symbol>
  <symbol id="user" viewBox="0 0 24 24">
    <circle cx="12" cy="8" r="4" fill="none" stroke="currentColor" stroke-width="1.8"/>
    <path d="M5 20c1-4 3.5-6 7-6s6 2 7 6" fill="none" stroke="currentColor" stroke-width="1.8" stroke-linecap="round"/>
  </symbol>
  <symbol id="student" viewBox="0 0 24 24">
    <path d="M3 8 12 4l9 4-9 4Z" fill="none" stroke="currentColor" stroke-width="1.8" stroke-linejoin="round"/>
    <path d="M7 10.5V15c1.3 1.6 3 2.4 5 2.4s3.7-.8 5-2.4v-4.5M20 9v5" fill="none" stroke="currentColor" stroke-width="1.8" stroke-linecap="round"/>
  </symbol>
  <symbol id="search" viewBox="0 0 24 24">
    <circle cx="10.5" cy="10.5" r="6" fill="none" stroke="currentColor" stroke-width="1.9"/>
    <path d="m15 15 5 5" fill="none" stroke="currentColor" stroke-width="1.9" stroke-linecap="round"/>
  </symbol>
  <symbol id="archive" viewBox="0 0 24 24">
    <path d="M4 7h16v13H4ZM3 4h18v3H3Z" fill="none" stroke="currentColor" stroke-width="1.8" stroke-linejoin="round"/>
    <path d="M9 11h6" fill="none" stroke="currentColor" stroke-width="1.8" stroke-linecap="round"/>
  </symbol>
  <symbol id="coins" viewBox="0 0 24 24">
    <ellipse cx="9" cy="7" rx="5" ry="3" fill="none" stroke="currentColor" stroke-width="1.8"/>
    <path d="M4 7v5c0 1.7 2.2 3 5 3s5-1.3 5-3V7M14 10c3.4.2 6 1.5 6 3.2v4.8c0 1.7-2.2 3-5 3-2.1 0-3.9-.7-4.7-1.8" fill="none" stroke="currentColor" stroke-width="1.8" stroke-linecap="round"/>
  </symbol>
  <symbol id="briefcase" viewBox="0 0 24 24">
    <rect x="4" y="7" width="16" height="12" rx="2" fill="none" stroke="currentColor" stroke-width="1.8"/>
    <path d="M9 7V5h6v2M4 12h16" fill="none" stroke="currentColor" stroke-width="1.8" stroke-linecap="round"/>
  </symbol>
  <symbol id="finance" viewBox="0 0 24 24">
    <path d="M4 18h16M6 16V9M12 16V5M18 16v-6" fill="none" stroke="currentColor" stroke-width="1.8" stroke-linecap="round"/>
    <path d="m5 10 5-4 4 4 5-5" fill="none" stroke="currentColor" stroke-width="1.8" stroke-linecap="round" stroke-linejoin="round"/>
  </symbol>
  <symbol id="supplier" viewBox="0 0 24 24">
    <path d="M4 20V7l4-3h8l4 3v13Z" fill="none" stroke="currentColor" stroke-width="1.8" stroke-linejoin="round"/>
    <path d="M8 20v-6h8v6M8 9h8" fill="none" stroke="currentColor" stroke-width="1.8" stroke-linecap="round"/>
  </symbol>
  <symbol id="bank" viewBox="0 0 24 24">
    <path d="M3 9 12 4l9 5ZM5 10h14M6 10v8M10 10v8M14 10v8M18 10v8M4 20h16" fill="none" stroke="currentColor" stroke-width="1.8" stroke-linecap="round" stroke-linejoin="round"/>
  </symbol>
  <symbol id="settings" viewBox="0 0 24 24">
    <circle cx="12" cy="12" r="3" fill="none" stroke="currentColor" stroke-width="1.8"/>
    <path d="M19 12a7 7 0 0 0-.1-1.1l2-1.5-2-3.4-2.4 1a7 7 0 0 0-1.9-1.1L14.3 3h-4.6l-.4 2.9A7 7 0 0 0 7.5 7l-2.4-1-2 3.4 2 1.5A7 7 0 0 0 5 12c0 .4 0 .8.1 1.1l-2 1.5 2 3.4 2.4-1c.6.5 1.2.8 1.9 1.1l.4 2.9h4.6l.4-2.9c.7-.3 1.3-.6 1.9-1.1l2.4 1 2-3.4-2-1.5c.1-.3.1-.7.1-1.1Z" fill="none" stroke="currentColor" stroke-width="1.5" stroke-linejoin="round"/>
  </symbol>
  <symbol id="menu" viewBox="0 0 24 24">
    <path d="M4 6.5h16M4 12h16M4 17.5h16" fill="none" stroke="currentColor" stroke-width="2" stroke-linecap="round"/>
  </symbol>
  <symbol id="bell" viewBox="0 0 24 24">
    <path d="M18 9a6 6 0 0 0-12 0c0 7-3 7-3 9h18c0-2-3-2-3-9Z" fill="none" stroke="currentColor" stroke-width="1.8" stroke-linejoin="round"/>
    <path d="M10 21a2.2 2.2 0 0 0 4 0" fill="none" stroke="currentColor" stroke-width="1.8" stroke-linecap="round"/>
  </symbol>
  <symbol id="mail" viewBox="0 0 24 24">
    <rect x="4" y="6" width="16" height="12" rx="1.8" fill="none" stroke="currentColor" stroke-width="1.8"/>
    <path d="m4.8 7.6 7.2 5.5 7.2-5.5" fill="none" stroke="currentColor" stroke-width="1.8" stroke-linecap="round" stroke-linejoin="round"/>
  </symbol>
  <symbol id="chevron-down" viewBox="0 0 24 24">
    <path d="m7 10 5 5 5-5" fill="none" stroke="currentColor" stroke-width="2" stroke-linecap="round" stroke-linejoin="round"/>
  </symbol>
  <symbol id="chevron-left" viewBox="0 0 24 24">
    <path d="m15 6-6 6 6 6" fill="none" stroke="currentColor" stroke-width="2" stroke-linecap="round" stroke-linejoin="round"/>
  </symbol>
  <symbol id="check" viewBox="0 0 24 24">
    <path d="m5 12.5 4.3 4.3L19 7" fill="none" stroke="currentColor" stroke-width="2.2" stroke-linecap="round" stroke-linejoin="round"/>
  </symbol>
  <symbol id="plus" viewBox="0 0 24 24">
    <path d="M12 5v14M5 12h14" fill="none" stroke="currentColor" stroke-width="2" stroke-linecap="round"/>
  </symbol>
  <symbol id="refresh" viewBox="0 0 24 24">
    <path d="M20 6v5h-5M4 18v-5h5" fill="none" stroke="currentColor" stroke-width="1.9" stroke-linecap="round" stroke-linejoin="round"/>
    <path d="M18.4 10A6.8 6.8 0 0 0 6.8 6.8L4 9.6M5.6 14a6.8 6.8 0 0 0 11.6 3.2L20 14.4" fill="none" stroke="currentColor" stroke-width="1.9" stroke-linecap="round" stroke-linejoin="round"/>
  </symbol>
  <symbol id="x" viewBox="0 0 24 24">
    <path d="M6 6l12 12M18 6 6 18" fill="none" stroke="currentColor" stroke-width="2.1" stroke-linecap="round"/>
  </symbol>
  <symbol id="printer" viewBox="0 0 24 24">
    <path d="M7 8V4h10v4M7 17H5a2 2 0 0 1-2-2v-4a2 2 0 0 1 2-2h14a2 2 0 0 1 2 2v4a2 2 0 0 1-2 2h-2" fill="none" stroke="currentColor" stroke-width="1.8" stroke-linecap="round" stroke-linejoin="round"/>
    <path d="M7 14h10v6H7Z" fill="none" stroke="currentColor" stroke-width="1.8" stroke-linejoin="round"/>
    <path d="M17.5 12h.01" fill="none" stroke="currentColor" stroke-width="2.4" stroke-linecap="round"/>
  </symbol>
  <symbol id="list" viewBox="0 0 24 24">
    <path d="M8 6h12M8 12h12M8 18h12" fill="none" stroke="currentColor" stroke-width="1.9" stroke-linecap="round"/>
    <circle cx="4.5" cy="6" r="1.2" fill="currentColor"/>
    <circle cx="4.5" cy="12" r="1.2" fill="currentColor"/>
    <circle cx="4.5" cy="18" r="1.2" fill="currentColor"/>
  </symbol>
  <symbol id="trash" viewBox="0 0 24 24">
    <path d="M5 7h14M10 11v6M14 11v6M8 7l1-3h6l1 3M7 7l1 13h8l1-13" fill="none" stroke="currentColor" stroke-width="1.8" stroke-linecap="round" stroke-linejoin="round"/>
  </symbol>
  <symbol id="edit" viewBox="0 0 24 24">
    <path d="M4 20h4l11-11a2.1 2.1 0 0 0-3-3L5 17Z" fill="none" stroke="currentColor" stroke-width="1.8" stroke-linejoin="round"/>
    <path d="m14 7 3 3" fill="none" stroke="currentColor" stroke-width="1.8" stroke-linecap="round"/>
  </symbol>
  <symbol id="document" viewBox="0 0 24 24">
    <path d="M7 3h7l4 4v14H7Z" fill="none" stroke="currentColor" stroke-width="1.8" stroke-linejoin="round"/>
    <path d="M14 3v5h5M9.5 12h5M9.5 16h5" fill="none" stroke="currentColor" stroke-width="1.8" stroke-linecap="round"/>
  </symbol>
  <symbol id="map-pin" viewBox="0 0 24 24">
    <path d="M12 21s6-5.2 6-11a6 6 0 1 0-12 0c0 5.8 6 11 6 11Z" fill="none" stroke="currentColor" stroke-width="1.8" stroke-linejoin="round"/>
    <circle cx="12" cy="10" r="2" fill="none" stroke="currentColor" stroke-width="1.8"/>
  </symbol>
  <symbol id="clock" viewBox="0 0 24 24">
    <circle cx="12" cy="12" r="8.5" fill="none" stroke="currentColor" stroke-width="1.8"/>
    <path d="M12 7.5V12l3 2" fill="none" stroke="currentColor" stroke-width="1.8" stroke-linecap="round"/>
  </symbol>
  <symbol id="eye" viewBox="0 0 24 24">
    <path d="M3.5 12s3-5 8.5-5 8.5 5 8.5 5-3 5-8.5 5-8.5-5-8.5-5Z" fill="none" stroke="currentColor" stroke-width="1.8" stroke-linejoin="round"/>
    <circle cx="12" cy="12" r="2.4" fill="none" stroke="currentColor" stroke-width="1.8"/>
  </symbol>
  <symbol id="child" viewBox="0 0 24 24">
    <circle cx="12" cy="6.5" r="2.8" fill="none" stroke="currentColor" stroke-width="1.8"/>
    <path d="M7.5 21v-6.2L5 12.5M16.5 21v-6.2l2.5-2.3M8 11h8M12 9.5V21" fill="none" stroke="currentColor" stroke-width="1.8" stroke-linecap="round" stroke-linejoin="round"/>
  </symbol>
  <symbol id="timer" viewBox="0 0 24 24">
    <path d="M9 3h6M12 7a7 7 0 1 0 0 14 7 7 0 0 0 0-14Z" fill="none" stroke="currentColor" stroke-width="1.8" stroke-linecap="round"/>
    <path d="m12 11-2 3M16.5 8.5l1.3-1.3" fill="none" stroke="currentColor" stroke-width="1.8" stroke-linecap="round"/>
  </symbol>
  <symbol id="bug" viewBox="0 0 24 24">
    <path d="M8 9.5a4 4 0 0 1 8 0V15a4 4 0 0 1-8 0Z" fill="none" stroke="currentColor" stroke-width="1.8" stroke-linejoin="round"/>
    <path d="M9.2 6.2 7.5 4.5M14.8 6.2l1.7-1.7M12 7.5v10M7.2 11H4.5M16.8 11h2.7M7.2 15H4.5M16.8 15h2.7M8 19l-2 1.5M16 19l2 1.5" fill="none" stroke="currentColor" stroke-width="1.8" stroke-linecap="round"/>
    <path d="M10 10h.01M14 10h.01" fill="none" stroke="currentColor" stroke-width="2.2" stroke-linecap="round"/>
  </symbol>
  <symbol id="lightbulb" viewBox="0 0 24 24">
    <path d="M8 10a4 4 0 1 1 8 0c0 1.6-.8 2.7-1.7 3.8-.7.9-1.3 1.7-1.3 3.2h-2c0-1.5-.6-2.3-1.3-3.2C8.8 12.7 8 11.6 8 10Z" fill="none" stroke="currentColor" stroke-width="1.8" stroke-linejoin="round"/>
    <path d="M10 19h4M10.5 22h3M12 2v1.5M5 5l1.1 1.1M19 5l-1.1 1.1M3 11h1.5M19.5 11H21" fill="none" stroke="currentColor" stroke-width="1.8" stroke-linecap="round"/>
  </symbol>
  <symbol id="alert" viewBox="0 0 24 24">
    <circle cx="12" cy="12" r="8.5" fill="none" stroke="currentColor" stroke-width="1.8"/>
    <path d="M12 7.5v5M12 16.5h.01" fill="none" stroke="currentColor" stroke-width="2" stroke-linecap="round"/>
  </symbol>
  <symbol id="shield" viewBox="0 0 24 24">
    <path d="M12 3.8 19 7v5.2c0 4.2-2.8 7.2-7 8.8-4.2-1.6-7-4.6-7-8.8V7Z" fill="none" stroke="currentColor" stroke-width="1.8" stroke-linejoin="round"/>
    <path d="m9 12 2 2 4-4" fill="none" stroke="currentColor" stroke-width="1.8" stroke-linecap="round" stroke-linejoin="round"/>
  </symbol>
  <symbol id="arrows-up-down" viewBox="0 0 24 24">
    <path d="M8 4v16M5 7l3-3 3 3M5 17l3 3 3-3M16 5v14M13 8l3-3 3 3M13 16l3 3 3-3" fill="none" stroke="currentColor" stroke-width="1.8" stroke-linecap="round" stroke-linejoin="round"/>
  </symbol>
  <symbol id="move-horizontal" viewBox="0 0 24 24">
    <path d="M8 6 2 12l6 6M16 6l6 6-6 6M3 12h18" fill="none" stroke="currentColor" stroke-width="1.9" stroke-linecap="round" stroke-linejoin="round"/>
  </symbol>
  <symbol id="message" viewBox="0 0 24 24">
    <path d="M5 5h14a2 2 0 0 1 2 2v8a2 2 0 0 1-2 2H9l-4 4v-4a2 2 0 0 1-2-2V7a2 2 0 0 1 2-2Z" fill="none" stroke="currentColor" stroke-width="1.8" stroke-linejoin="round"/>
    <path d="M8 9h8M8 13h5" fill="none" stroke="currentColor" stroke-width="1.8" stroke-linecap="round"/>
  </symbol>
</svg>
